<svg width="23" height="23" viewBox="0 0 23 23" fill="none" xmlns="http://www.w3.org/2000/svg">
<path d="M1.05005 1.5498H3.05005L5.71005 13.9698C5.80763 14.4247 6.06072 14.8313 6.42576 15.1197C6.7908 15.408 7.24495 15.5602 7.71005 15.5498H17.49C17.9452 15.5491 18.3865 15.3931 18.7411 15.1076C19.0956 14.8222 19.3422 14.4243 19.4401 13.9798L21.09 6.5498H4.12005M8 20.4998C8 21.052 7.55228 21.4998 7 21.4998C6.44772 21.4998 6 21.052 6 20.4998C6 19.9475 6.44772 19.4998 7 19.4998C7.55228 19.4998 8 19.9475 8 20.4998ZM19 20.4998C19 21.052 18.5523 21.4998 18 21.4998C17.4477 21.4998 17 21.052 17 20.4998C17 19.9475 17.4477 19.4998 18 19.4998C18.5523 19.4998 19 19.9475 19 20.4998Z" stroke="black" stroke-width="2" stroke-linecap="round" stroke-linejoin="round"/>
</svg>
